<svg id="Layer_1" data-name="Layer 1" xmlns="http://www.w3.org/2000/svg" viewBox="0 0 225.74 200"><defs><style>.cls-5{fill:#fff}</style><radialGradient id="radial-gradient" cx="59.54" cy="34.35" r="236.45" gradientUnits="userSpaceOnUse"><stop offset="0" stop-color="#7fcef2"/><stop offset=".07" stop-color="#79caf0"/><stop offset=".16" stop-color="#68c1eb"/><stop offset=".27" stop-color="#4db0e2"/><stop offset=".37" stop-color="#2c9dd7"/><stop offset=".5" stop-color="#1b88ca"/><stop offset=".66" stop-color="#0c76be"/><stop offset=".82" stop-color="#036bb7"/><stop offset="1" stop-color="#0067b5"/></radialGradient></defs><path d="M224.57 0H26.24v199h198.33v-65.67a7.53 7.53 0 0 0 1.18-4.38 6.77 6.77 0 0 0-1.18-4.35z" fill="url(#radial-gradient)"/><path d="M135.45 79.16a6.59 6.59 0 0 1-3.92 6.21 6.25 6.25 0 0 1 2.74 2c.79 1.14.94 2.2.94 4.26v4.58h-5.62v-2.93c0-1.39.14-3.42-.9-4.53-.82-.83-2-1-4.06-1h-6v8.46h-5.57V72.86h12.83c2.83 0 4.94.09 6.74 1.13a5.42 5.42 0 0 1 2.82 5.17z" fill="#33a0d9"/><path fill="#49afe1" d="M109.2 96.17H90.58V72.86h18.62v4.87H96.17v4.19h12.71v4.79l-12.71-.02v4.67h13.03v4.81z"/><path fill="#5cbae6" d="M86.43 96.17h-5.71l-.03-18.23-8.07 18.23h-4.89L59.6 77.9v18.27H48.27l-2.13-5.19H34.52l-2.14 5.19h-6.07l9.97-23.31h8.29l9.48 22.09V72.86h9.11l7.29 15.83 6.7-15.83h9.28v23.31z"/><path class="cls-5" d="M128.16 82.44a5.4 5.4 0 0 1-2.75.47h-6.78v-5.18h6.86a5.81 5.81 0 0 1 2.65.4 2.15 2.15 0 0 1 1.17 2.06 2.45 2.45 0 0 1-1.15 2.25zM44.13 86.12l-3.82-9.28-3.8 9.28h7.62zM168.79 86.12h7.68l-3.86-9.28-3.82 9.28z"/><path class="cls-5" d="M199.83 68.24v3.85l-2.16-3.85h-15.89v3.85l-2-3.85h-21.45a19.24 19.24 0 0 0-9.31 1.9v-1.9h-14.8v1.9c-1.64-1.45-3.85-1.9-6.3-1.9H73.81l-3.65 8.41-3.71-8.41h-17v3.85l-1.89-3.85H33l-6.76 15.45v17.08h9.53l2.15-5.2h4.81l2.14 5.2h18.74v-4l1.68 4H75l1.67-4v4h46.57v-8.5h.91c.64 0 .82.09.82 1.12v7.38H149v-2a19 19 0 0 0 8.93 2h10.17l2.17-5.2h4.81l2.13 5.2h19.52v-4.93l3 4.93h15.64V68.24zM86.43 96.17h-5.71V77.93l-8.1 18.24h-4.89L59.6 77.9v18.27H48.27L46.14 91H34.53l-2.15 5.2h-6.07l10-23.31h8.29L54 94.95V72.86h9.12l7.28 15.83 6.7-15.83h9.28zm22.77-18.44h-13v4.19h12.71v4.79H96.2v4.66h13v4.82H90.58V72.86h18.62zm25.08 9.6c.79 1.14.94 2.2.94 4.26v4.58h-5.62v-2.93c0-1.39.14-3.42-.9-4.53-.82-.83-2-1-4.06-1h-6v8.46h-5.57V72.86h12.83c2.83 0 4.94.09 6.74 1.13a5.42 5.42 0 0 1 2.82 5.17 6.59 6.59 0 0 1-3.92 6.21 6.25 6.25 0 0 1 2.74 1.97zm10.1 8.84h-5.69V72.85h5.69zm66 0h-7.9l-10.59-17.48v17.48h-11.34L178.38 91h-11.6l-2.08 5.2h-6.53c-2.72 0-6.15-.6-8.08-2.57s-3-4.66-3-8.91c0-3.46.61-6.61 3-9.11 1.81-1.87 4.63-2.73 8.47-2.73H164v5h-5.3c-2 0-3.2.31-4.32 1.39a7.82 7.82 0 0 0-1.59 5.29c0 2.5.49 4.28 1.54 5.47a5.34 5.34 0 0 0 3.87 1.2h2.5l7.86-18.34h8.35l9.43 22.06v-22.1h8.5l9.8 16.24V72.85h5.7zM134.28 120.69c0 6.46-4.82 7.81-9.71 7.81h-7v7.82H106.8l-6.87-7.72-7.13 7.72H70.72V113h22.42l6.85 7.64 7.09-7.64h17.81c4.42 0 9.39 1.22 9.39 7.69zM90 131.46H76.26v-4.64H88.5v-4.76H76.26v-4.23h14l6.1 6.79zm22.09 2.75l-8.55-9.51 8.55-9.19zm12.77-10.46h-7.22v-5.92h7.28c2 0 3.41.81 3.41 2.86s-1.33 3.06-3.49 3.06zM162.43 113H181v4.83h-13v4.23h12.73v4.76H168v4.64h13.06v4.84h-18.63zm-7 12.48a6 6 0 0 1 2.73 2c.79 1.14.92 2.2.93 4.26v4.62h-5.59v-2.96c0-1.4.13-3.47-.91-4.55-.81-.85-2.05-1-4.08-1h-6v8.52h-5.59V113h12.85c2.84 0 4.89.12 6.71 1.11a5.45 5.45 0 0 1 2.86 5.18 6.53 6.53 0 0 1-3.95 6.19zm-3.43-2.89a5.39 5.39 0 0 1-2.74.47h-6.76v-5.23h6.86a5.58 5.58 0 0 1 2.65.41 2.23 2.23 0 0 1 1.15 2.1 2.54 2.54 0 0 1-1.16 2.25zm50.3 1.42A6.47 6.47 0 0 1 204 129c0 5-3.14 7.37-8.75 7.37h-10.88v-5h10.82a3.24 3.24 0 0 0 2.28-.58 2 2 0 0 0 .66-1.51 1.94 1.94 0 0 0-.69-1.54 2.88 2.88 0 0 0-2-.53c-5.21-.17-11.74.16-11.74-7.22 0-3.38 2.13-6.94 8-6.94h11.18v5h-10.23a3.83 3.83 0 0 0-2.24.42 2 2 0 0 0 .39 3.42 6.57 6.57 0 0 0 2.16.27l3 .08c3.04-.01 5.09.51 6.35 1.76zm22.25 9.32c-1.37 2-4 3-7.58 3h-10.75v-5h10.73a3.16 3.16 0 0 0 2.26-.58 2 2 0 0 0 .67-1.51 2 2 0 0 0-.68-1.54 2.87 2.87 0 0 0-2-.53c-5.23-.17-11.76.16-11.76-7.22 0-3.38 2.15-6.94 8-6.94h11.11v-4.64h-10.31a11.6 11.6 0 0 0-7 1.91v-1.91H192c-2.43 0-5.29.61-6.66 1.91v-1.91h-27.25v1.91c-2.17-1.55-5.82-1.91-7.52-1.91h-18v1.91c-1.73-1.66-5.52-1.91-7.86-1.91h-20.07l-4.6 5-4.31-5H65.67v32.56h29.49l4.74-5.06 4.47 5.06h18.16v-7.66h1.8a19.09 19.09 0 0 0 7.76-1.13v8.78h15v-8.49h.72c.93 0 1 .05 1 1v7.53h45.54c2.88 0 5.9-.74 7.58-2.08v2.08h14.45a19.39 19.39 0 0 0 8.18-1.5zm0-15.38h-10.16a3.83 3.83 0 0 0-2.24.42 1.84 1.84 0 0 0-.82 1.68 1.76 1.76 0 0 0 1.23 1.74 6.49 6.49 0 0 0 2.15.27l3 .08c3 .09 5.08.6 6.33 1.87a5.21 5.21 0 0 1 .52.59z"/><path d="M13.55 194.92h-1.74a10 10 0 0 1-.25-2.31c0-.65-.11-1.3-1.3-1.3H7.7v3.6H6.17v-8.81h4.09c1.41 0 3 .51 3 2.46a2.22 2.22 0 0 1-.95 2c.4.23.74.6.79 1.6l.06 1.52c0 .44.06.53.43.73zm-1.9-6.23c0-1.11-.76-1.21-1.32-1.21H7.7v2.46h2.44c.86 0 1.51-.19 1.51-1.25zm7.23 1.92A9.44 9.44 0 1 0 9.45 200a9.4 9.4 0 0 0 9.44-9.39zm-1.42 0a7.9 7.9 0 0 1-8 8 8 8 0 1 1 0-16 7.89 7.89 0 0 1 8 8z" fill="#007dc3"/></svg>