<svg id="Layer_1" data-name="Layer 1" xmlns="http://www.w3.org/2000/svg" viewBox="0 0 400.14 127.2"><defs><style>.cls-1{stroke:#000;stroke-width:.14px}</style></defs><path class="cls-1" d="M146.91 61.83C146.93 24.24 124.36 8 98.7 2.21V.26c46.68 2.44 80.87 30.85 80.86 63.34 0 37.1-40.25 63.56-89.87 63.53S.06 98.6.07 63.48C.09 26.63 35 0 94.61.07v45.77l-14.08-.29c-30.18 1-65.12 14.18-65.13 31.86 0 19.45 33.16 42.85 73 42.87 32.19.03 58.5-23.28 58.51-58.45z"/><path class="cls-1" d="M94.3 115c-17.1-1.23-39.08-12.64-39.07-32.28 0-19.45 18.74-33.53 39.1-34.29zM361.12 26.69l-.9 5.06c-2.34-.78-24.66-6-25 10.59-.22 13.3 20.07 11.66 24.72 10.44l.52 5.51c-15.27 4.26-35.56-.39-36-16.08-.46-18.09 26.39-20.33 36.66-15.52zM376.9 59.21l.01-28.49-13.72-.01v-5.44l36.88.03v5.44l-13.46-.01-.01 28.48h-9.7zM321.84 30.68v-5.69l-27.19-.01-.02 33.91 9.08.01v-.01l17.98.02v-5.69l-17.98-.01.01-8.25 17.05.01v-5.69l-17.05-.01v-8.6l18.12.01zM233.8 25.01h10.16v33.77H233.8zM205.31 25.27h-18.19V59h18.19c12.34 0 23-6.24 23-16.73s-10.66-16.99-23-17zm-1.79 28.08l-6.25.17V30l7.82.43c5.47 0 12.58 3.7 12.57 11.53 0 6.49-5.33 11.4-14.14 11.39zM205.29 67.7H187.1v33.77h18.19c12.34 0 23-6.24 23-16.73s-10.66-17.03-23-17.04zm-1.78 28.08l-6.25.17V72.46l7.82.43c5.47 0 12.58 3.71 12.57 11.53 0 6.47-5.33 11.37-14.14 11.36zM343.99 76.91h9.81v25.1h-9.81zM344 65.18h9.81v6.47H344zM387.12 94.29v-12h8.31v-5.34h-8.31v-6.48h-10v6.47h-7.82v5.33h7.82v13.15c0 8.89 11.86 9.11 18.61 7.55v-5.55c-3.14 1.07-8.61.07-8.61-3.13zM249.48 90.64c.49 9.74 20.11 6.27 22.74 3.5V100c-3.91 1.85-8.94 2.06-14.53 2.05-10.18 0-18.44-5.2-18.44-13.66 0-7.54 7.61-13.5 18.44-13.5 8.35 0 17.59 3.92 16.94 15.72zm.07-4.68h15.78c-.42-3.81-3.27-5.94-7.53-5.95-4.62-.01-8.1 1.74-8.25 5.99zM285.81 33.93c0 8-7.56 8.64-8 8.67a10.37 10.37 0 0 1 2.39 2.4l7.8 13.88h-10.6l-5.4-10.1a5.75 5.75 0 0 0-5.55-3.42h-3.75v13.51h-10.06V24.94h18.21c5.15.06 14.97 1.31 14.96 8.99zm-23.16 5.67h6.61c2.63 0 6.4-1.7 6.4-4.51 0-3.09-3.11-4.59-6.25-4.59h-6.75zM311.63 76c-5.16 0-9.39 1.29-12 4.2V65.08h-9.81v36.62h9.81v-3.19c2.52 2.82 6.59 4.11 12 4.12 8.26 0 15-5 15-13.53-.12-8.72-6.74-13.1-15-13.1zm-3.53 21.08c-4.39 0-8-3-8.53-6.78v-1.89c.52-3.81 4.14-6.77 8.53-6.76 4.75 0 8.6 3.46 8.6 7.72s-3.85 7.71-8.6 7.71z"/></svg>