<svg id="Layer_1" data-name="Layer 1" xmlns="http://www.w3.org/2000/svg" viewBox="0 0 257.14 200"><defs><style>.cls-4{fill:#f79e1b}</style></defs><g id="Layer_2" data-name="Layer 2"><g id="Layer_1-2" data-name="Layer 1-2"><path d="M46.79 198.9v-13.25a7.86 7.86 0 0 0-8.3-8.39 8.17 8.17 0 0 0-7.42 3.74 7.75 7.75 0 0 0-7-3.75 7 7 0 0 0-6.18 3.13v-2.6h-4.57v21.1H18v-11.59a4.94 4.94 0 0 1 5.16-5.61c3 0 4.59 2 4.59 5.56V199h4.64v-11.7a5 5 0 0 1 5.16-5.61c3.13 0 4.64 2 4.64 5.56V199zm68.58-21.1h-7.55v-6.4h-4.64v6.4H99v4.2h4.28v9.71c0 4.9 1.9 7.81 7.33 7.81a10.77 10.77 0 0 0 5.74-1.63L115 194a8.48 8.48 0 0 1-4.06 1.19c-2.21 0-3-1.41-3-3.53V182h7.5zm39.16-.53a6.22 6.22 0 0 0-5.56 3.09v-2.56h-4.55v21.1H149v-11.83c0-3.49 1.5-5.43 4.41-5.43a7.48 7.48 0 0 1 2.87.53l1.41-4.41a9.82 9.82 0 0 0-3.27-.57zm-59.2 2.21a15.78 15.78 0 0 0-8.61-2.21c-5.34 0-8.83 2.56-8.83 6.75 0 3.44 2.56 5.56 7.28 6.22l2.21.31c2.52.35 3.71 1 3.71 2.21 0 1.63-1.68 2.56-4.81 2.56a11.23 11.23 0 0 1-7-2.21L77 196.69a15.23 15.23 0 0 0 9.14 2.74c6.09 0 9.62-2.87 9.62-6.89s-2.78-5.65-7.37-6.31l-2.21-.31c-2-.26-3.58-.66-3.58-2.07s1.5-2.47 4-2.47a13.6 13.6 0 0 1 6.62 1.81zm123-2.21a6.22 6.22 0 0 0-5.56 3.09v-2.56h-4.55v21.1h4.59v-11.83c0-3.49 1.5-5.43 4.41-5.43a7.48 7.48 0 0 1 2.87.53l1.41-4.41a9.82 9.82 0 0 0-3.27-.57zm-59.15 11a10.66 10.66 0 0 0 10.26 11h1a11 11 0 0 0 7.59-2.52l-2.21-3.71a9.27 9.27 0 0 1-5.52 1.9 6.78 6.78 0 0 1 0-13.51 9.27 9.27 0 0 1 5.52 1.9l2.21-3.71a11 11 0 0 0-7.59-2.52 10.66 10.66 0 0 0-11.25 10v1zm43 0V177.8h-4.59v2.56a8 8 0 0 0-6.62-3.09 11 11 0 0 0 0 22.07 8 8 0 0 0 6.62-3.09v2.56h4.59zm-17.08 0a6.33 6.33 0 1 1 0 .5q-.1-.22-.1-.47zm-55.4-11a11 11 0 0 0 .31 22.07 12.82 12.82 0 0 0 8.76-2.87l-2.21-3.4a10 10 0 0 1-6.14 2.21 5.85 5.85 0 0 1-6.31-5.16h15.67v-1.77c0-6.62-4.11-11-10-11zm0 4.11a5.23 5.23 0 0 1 5.34 5.12H124a5.43 5.43 0 0 1 5.61-5.12zm115 7v-19h-4.41v11a8 8 0 0 0-6.62-3.09 11 11 0 1 0 0 22.07 8 8 0 0 0 6.62-3.09v2.56h4.41zm7.66 7.48a2.12 2.12 0 0 1 2 1.26 2.05 2.05 0 0 1 0 1.63 2.11 2.11 0 0 1-1.15 1.1 2.07 2.07 0 0 1-.84.18 2.21 2.21 0 0 1-2-1.28 2.07 2.07 0 0 1 0-1.63 2.14 2.14 0 0 1 2.05-1.26zm0 3.73a1.57 1.57 0 0 0 .64-.13 1.66 1.66 0 0 0 .51-.35 1.59 1.59 0 0 0-.51-2.56 1.59 1.59 0 0 0-.64-.13 1.66 1.66 0 0 0-.64.13 1.61 1.61 0 0 0-.53.35 1.6 1.6 0 0 0 1.24 2.69zm.13-2.63a.88.88 0 0 1 .57.18.55.55 0 0 1 .2.46.53.53 0 0 1-.15.4.77.77 0 0 1-.46.2l.64.73h-.51l-.6-.73h-.2v.73h-.42V197zm-.49.38v.53h.49a.46.46 0 0 0 .26 0 .22.22 0 0 0 0-.2.22.22 0 0 0 0-.2.46.46 0 0 0-.26 0zm-24.28-9a6.33 6.33 0 1 1 0 .5q-.05-.24-.03-.49zm-155 0V177.8h-4.63v2.56a8 8 0 0 0-6.62-3.09 11 11 0 1 0 0 22.07 8 8 0 0 0 6.62-3.09v2.56h4.59zm-17.08 0a5.9 5.9 0 1 1-.06.54v-.54z" fill="#231f20"/><g id="_Group_" data-name="Group"><path fill="#ff5f00" d="M93.8 17h69.53v124.95H93.8z"/><path id="_Path_" data-name="Path" d="M98.21 79.48A79.33 79.33 0 0 1 128.56 17a79.46 79.46 0 1 0 0 125 79.33 79.33 0 0 1-30.35-62.52z" fill="#eb001b"/><path class="cls-4" d="M257.14 79.48a79.46 79.46 0 0 1-128.57 62.47 79.46 79.46 0 0 0 0-125 79.46 79.46 0 0 1 128.57 62.51zM249.54 128.71v-2.56h1v-.53H248v.53h1.13v2.56zm5.1 0v-3.09h-.79l-.93 2.21-.93-2.21h-.71v3.09h.57v-2.32l.86 2h.6l.86-2v2.34z"/></g></g></g></svg>