<svg id="Layer_1" data-name="Layer 1" xmlns="http://www.w3.org/2000/svg" viewBox="0 0 400 100"><defs><style>.cls-5{fill:#253b80}.cls-6{fill:#179bd7}</style><clipPath id="clip-path"><path id="_Clipping_Path_" data-name="&lt;Clipping Path&gt;" fill="none" d="M0 0h400v100H0z"/></clipPath><clipPath id="clip-path-4"><path id="_Clipping_Path_4" data-name="&lt;Clipping Path&gt;" clip-rule="evenodd" fill="none" d="M400 0v100H0V0"/></clipPath></defs><g id="_Group_" data-name="&lt;Group&gt;"><g id="_Group_6" data-name="&lt;Group&gt;"><g id="_Group_7" data-name="&lt;Group&gt;"><g id="_Group_8" data-name="&lt;Group&gt;"><g id="_Group_9" data-name="&lt;Group&gt;"><path id="_Compound_Path_" data-name="&lt;Compound Path&gt;" class="cls-5" d="M151.61 39.86c-1.21 7.44-7.25 7.44-13.1 7.44h-3.33l2.34-13.89a1.81 1.81 0 0 1 1.81-1.41h1.53c4 0 7.74 0 9.68 2.13 1.16 1.23 1.51 3.12 1.07 5.73zm-2.55-19.41H127a3 3 0 0 0-3 2.43L115.05 76a1.76 1.76 0 0 0 1.82 2h10.53a3 3 0 0 0 3-2.43l2.41-14.33a3 3 0 0 1 3-2.43h7c14.53 0 22.92-6.61 25.11-19.7 1-5.73 0-10.23-2.81-13.38-3.11-3.45-8.66-5.28-16.04-5.28z"/><path id="_Compound_Path_2" data-name="&lt;Compound Path&gt;" class="cls-5" d="M200.29 58.94c-1 5.67-5.81 9.48-11.92 9.48-3.07 0-5.52-.92-7.09-2.68a8.05 8.05 0 0 1-1.66-7c1-5.62 5.82-9.55 11.84-9.55a9.2 9.2 0 0 1 7 2.7 8.21 8.21 0 0 1 1.83 7.05zM215 39.62h-10.55a1.81 1.81 0 0 0-1.82 1.46l-.47 2.78-.74-1c-2.29-3.12-7.39-4.16-12.48-4.16a23.81 23.81 0 0 0-23.59 20c-1 5.81.43 11.37 3.94 15.25 3.22 3.56 7.83 5 13.31 5a20.75 20.75 0 0 0 14.62-5.68l-.47 2.73a1.76 1.76 0 0 0 1.81 2h9.52a3 3 0 0 0 3-2.43l5.71-34a1.76 1.76 0 0 0-1.79-1.95z"/><path id="_Path_" data-name="&lt;Path&gt;" class="cls-5" d="M271.28 39.62h-10.62a3.14 3.14 0 0 0-2.54 1.26l-14.64 20.27-6.21-19.47a3.06 3.06 0 0 0-2.94-2.05H223.9a1.75 1.75 0 0 0-1.75 2.28l11.69 32.24-11 14.58a1.72 1.72 0 0 0 1.5 2.73H235a3.12 3.12 0 0 0 2.52-1.24l35.31-47.88a1.72 1.72 0 0 0-1.55-2.72z"/><path id="_Compound_Path_3" data-name="&lt;Compound Path&gt;" class="cls-6" d="M309 39.86c-1.2 7.44-7.25 7.44-13.1 7.44h-3.33l2.34-13.89a1.8 1.8 0 0 1 1.78-1.41h1.53c4 0 7.74 0 9.68 2.13 1.16 1.23 1.51 3.12 1.1 5.73zm-2.55-19.41h-22.09a3 3 0 0 0-3 2.43L272.41 76a1.76 1.76 0 0 0 1.81 2h11.32a2.11 2.11 0 0 0 2.12-1.7l2.53-15.06a3 3 0 0 1 3-2.43h7c14.54 0 22.92-6.61 25.11-19.7 1-5.73 0-10.23-2.82-13.38-3.11-3.45-8.67-5.28-16.05-5.28z"/><path id="_Compound_Path_4" data-name="&lt;Compound Path&gt;" class="cls-6" d="M357.64 58.94c-1 5.67-5.81 9.48-11.92 9.48-3.06 0-5.52-.92-7.09-2.68a8.07 8.07 0 0 1-1.66-7c1-5.62 5.82-9.55 11.84-9.55a9.2 9.2 0 0 1 7 2.7 8.16 8.16 0 0 1 1.83 7.05zm14.73-19.32h-10.56a1.8 1.8 0 0 0-1.81 1.46l-.47 2.78-.74-1c-2.29-3.12-7.38-4.16-12.47-4.16a23.8 23.8 0 0 0-23.58 20c-1 5.81.42 11.37 3.93 15.25 3.23 3.56 7.83 5 13.31 5a20.75 20.75 0 0 0 14.62-5.68l-.48 2.73a1.77 1.77 0 0 0 1.82 2h9.51a3 3 0 0 0 3-2.43l5.71-34a1.77 1.77 0 0 0-1.79-1.95z"/><path id="_Path_2" data-name="&lt;Path&gt;" class="cls-6" d="M384.82 21.91L375.77 76a1.76 1.76 0 0 0 1.81 2h9.1a3 3 0 0 0 3-2.43l8.93-53.14a1.76 1.76 0 0 0-1.81-2h-10.16a1.81 1.81 0 0 0-1.82 1.48z"/><path id="_Path_3" data-name="&lt;Path&gt;" class="cls-5" d="M23.44 88.35l1.69-10.07-3.76-.08H3.42L15.89 3.92a1 1 0 0 1 .35-.58 1.06 1.06 0 0 1 .66-.23h30.26c10 0 17 2 20.6 5.84a13.07 13.07 0 0 1 3.3 5.81 19.73 19.73 0 0 1 0 8L71 23v2l1.7.9a11.85 11.85 0 0 1 3.44 2.46A11.15 11.15 0 0 1 79 34.28a23.37 23.37 0 0 1-.4 8.52 28.87 28.87 0 0 1-3.72 9.65A20.36 20.36 0 0 1 69 58.51a24.65 24.65 0 0 1-8 3.36 42 42 0 0 1-9.91 1.08h-2.32a7.42 7.42 0 0 0-4.6 1.59 6.61 6.61 0 0 0-2.4 4l-.18.91-3 17.74-.14.65a.55.55 0 0 1-.19.38.52.52 0 0 1-.31.11z"/><path id="_Path_4" data-name="&lt;Path&gt;" class="cls-6" d="M74.35 23.23q-.14.77-.35 1.67c-4 19.25-17.6 25.89-35 25.89h-8.92a4.24 4.24 0 0 0-4.26 3.43L21.28 81.3 20 89a2.18 2.18 0 0 0 2.24 2.47H38a3.73 3.73 0 0 0 3.74-3l.15-.75 3-17.67.19-1a3.72 3.72 0 0 1 3.74-3h2.35c15.25 0 27.2-5.82 30.69-22.65 1.46-7 .7-12.91-3.15-17a15 15 0 0 0-4.36-3.17z"/><path id="_Path_5" data-name="&lt;Path&gt;" d="M70.17 21.67q-.91-.25-1.88-.45t-2-.35a52.43 52.43 0 0 0-7.83-.54H34.75a4 4 0 0 0-1.64.35A3.58 3.58 0 0 0 31 23.33l-5 30-.15.88a4.24 4.24 0 0 1 4.26-3.43H39c17.4.01 31-6.64 35-25.88.12-.57.22-1.12.31-1.67a22 22 0 0 0-3.28-1.3z" fill="#222d65"/><path id="_Path_6" data-name="&lt;Path&gt;" class="cls-5" d="M31 23.33a3.57 3.57 0 0 1 2.1-2.65 4 4 0 0 1 1.64-.35h23.73a52.43 52.43 0 0 1 7.83.54q1 .15 2 .35t1.88.45l.9.26a22.33 22.33 0 0 1 3.28 1.3c1.19-7.11 0-12-4.1-16.34C65.74 2.07 57.59 0 47.17 0H16.91a4.25 4.25 0 0 0-4.27 3.43L0 78.48a2.5 2.5 0 0 0 2.6 2.82h18.68l4.69-28z"/></g></g></g></g></g></svg>