<svg data-name="Layer 1" xmlns="http://www.w3.org/2000/svg" viewBox="0 0 400 129.18"><path d="M151.87 2.28L99.5 127.22H65.33L39.56 27.51c-1.56-6.13-2.92-8.38-7.68-11-7.77-4.2-20.6-8.15-31.88-10.6l.76-3.63h55c7 0 13.31 4.66 14.91 12.73l13.61 72.3 33.62-85zm133.86 84.15c.14-33-45.58-34.8-45.28-49.53.1-4.48 4.37-9.25 13.71-10.46A61 61 0 0 1 286 32l5.66-26.5A87.13 87.13 0 0 0 261.47 0c-32 0-54.43 17-54.61 41.3-.2 18 16.06 28 28.28 34 12.61 6.12 16.83 10.05 16.77 15.52-.09 8.38-10.05 12.09-19.33 12.23-16.26.25-25.68-4.39-33.2-7.9l-5.87 27.39c7.56 3.46 21.5 6.48 35.93 6.63 34 0 56.18-16.77 56.28-42.75m84.38 40.79H400L373.89 2.28h-27.57a14.71 14.71 0 0 0-13.77 9.16l-48.5 115.78H318l6.74-18.66h41.46zM334 83l17-47 9.84 47zM198 2.33l-26.67 124.89H139L165.73 2.28z" fill="#1a1f71"/></svg>